<?xml version="1.0" encoding="utf-8"?>
<!-- Generator: Adobe Illustrator 25.0.0, SVG Export Plug-In . SVG Version: 6.00 Build 0)  -->
<svg version="1.1" id="Layer_1" xmlns="http://www.w3.org/2000/svg" xmlns:xlink="http://www.w3.org/1999/xlink" x="0px" y="0px"
	 viewBox="0 0 50 50" style="enable-background:new 0 0 50 50;" xml:space="preserve">
<style type="text/css">
	.st0{fill:#FFFFFF;}
</style>
<path class="st0" d="M19,3c-0.6,0-1,0.4-1,1s0.4,1,1,1h7v14h-4c-0.6,0-1,0.4-1,1v9c0,0.6,0.4,1,1,1h4v7c0,0.6,0.4,1,1,1s1-0.4,1-1
	v-7h3c0.6,0,1-0.4,1-1v-9c0-0.6-0.4-1-1-1h-3V5h6v3h-0.2C32.2,8,31,9.2,31,10.8v4.5c0,1.5,1.2,2.8,2.8,2.8h2.5
	c1.5,0,2.8-1.2,2.8-2.8v-4.5C39,9.2,37.8,8,36.2,8H36V4c0-0.6-0.4-1-1-1H19z M25,21h3c0.6,0,1,0.4,1,1s-0.4,1-1,1h-3
	c-0.6,0-1-0.4-1-1S24.4,21,25,21z M25,25c0.6,0,1,0.4,1,1s-0.4,1-1,1s-1-0.4-1-1S24.4,25,25,25z M28,25c0.6,0,1,0.4,1,1s-0.4,1-1,1
	s-1-0.4-1-1S27.4,25,28,25z M3,26v21h4V26H3z M43,31v16h4V31H43z M11.5,33C10.1,33,9,34.1,9,35.5s1.1,2.5,2.5,2.5h8
	c1.4,0,2.5-1.1,2.5-2.5S20.9,33,19.5,33H11.5z M9,40v7h32v-7H9z"/>
</svg>
