<?xml version="1.0" encoding="utf-8"?>
<!-- Generator: Adobe Illustrator 25.0.0, SVG Export Plug-In . SVG Version: 6.00 Build 0)  -->
<svg version="1.1" id="Layer_1" xmlns="http://www.w3.org/2000/svg" xmlns:xlink="http://www.w3.org/1999/xlink" x="0px" y="0px"
	 viewBox="0 0 50 50" style="enable-background:new 0 0 50 50;" xml:space="preserve">
<style type="text/css">
	.st0{fill:#FFFFFF;}
</style>
<path class="st0" d="M31.1,3c-0.2,0-0.3,0-0.5,0.1c0,0-1.9,0.9-5.6,0.9c-3.6,0-5.5-0.9-5.5-0.9c-0.1,0-0.1-0.1-0.2-0.1c0,0,0,0,0,0
	c0,0-0.1,0-0.1,0c-0.1,0-0.2,0-0.2,0c-0.1,0-0.1,0-0.2,0L12.5,4c0.6,1.7,1.5,4.6,1.5,8c0,5.1-1.4,8.2-3,11.3V47c0,0.6,0.4,1,1,1h7
	c0.6,0,1-0.4,1-1v-2h10v2c0,0.6,0.4,1,1,1h7c0.6,0,1-0.4,1-1V23.3c-1.6-3.1-3-6.2-3-11.3c0-3.4,0.9-6.4,1.5-8L31.4,3
	C31.3,3,31.2,3,31.1,3z M10.7,4.9c-1.6,1.4-5.5,5-9.5,10.6c-0.3,0.4-0.2,1,0.2,1.3l6,5C7.5,21.9,7.8,22,8,22c0.3,0,0.5-0.1,0.7-0.3
	l1.6-1.6c1-2.2,1.7-4.7,1.7-8.1C12,9,11.2,6.4,10.7,4.9z M39.3,4.9C38.8,6.4,38,9,38,12c0,3.5,0.7,5.9,1.7,8.1l1.6,1.6
	c0.2,0.2,0.5,0.3,0.7,0.3c0.2,0,0.5-0.1,0.6-0.2l6-5c0.4-0.3,0.5-0.9,0.2-1.3C44.8,9.9,40.9,6.2,39.3,4.9z M20,5.4
	C21.1,5.7,22.8,6,25,6s3.9-0.3,5-0.6V14H20V5.4z M20,16h3.4l-1.3,2.6c-0.2,0.5,0,1.1,0.4,1.3s1.1,0,1.3-0.4l1.1-2.2l1.1,2.2
	c0.2,0.5,0.8,0.7,1.3,0.4s0.7-0.8,0.4-1.3L26.6,16H30v12h-5h-5V16z M20,30h3.4l-1.3,2.6c-0.2,0.5,0,1.1,0.4,1.3s1.1,0,1.3-0.4
	l1.1-2.2l1.1,2.2c0.2,0.5,0.8,0.7,1.3,0.4s0.7-0.8,0.4-1.3L26.6,30H30v13H20V30z"/>
</svg>
