<?xml version="1.0" encoding="utf-8"?>
<!-- Generator: Adobe Illustrator 25.0.0, SVG Export Plug-In . SVG Version: 6.00 Build 0)  -->
<svg version="1.1" id="Layer_1" xmlns="http://www.w3.org/2000/svg" xmlns:xlink="http://www.w3.org/1999/xlink" x="0px" y="0px"
	 viewBox="0 0 50 50" style="enable-background:new 0 0 50 50;" xml:space="preserve">
<style type="text/css">
	.st0{fill:#FFFFFF;}
</style>
<path class="st0" d="M25,0C12.3,0,2,10.3,2,23c0,6.8,2.9,13.1,8,17.4V38c0-0.8,0.1-1.9,0.3-2.5l2.8-11.2c0-0.4-0.1-0.9-0.1-1.3
	c0-6.6,5.4-12,12-12s12,5.4,12,12c0,0.4,0,0.9-0.1,1.3l2.8,11.2c0.1,0.6,0.3,1.8,0.3,2.5v2.4c5.1-4.3,8-10.6,8-17.4
	C48,10.3,37.7,0,25,0z M17,20c-0.5,0-0.9,0.3-1,0.8L12.2,36h25.6L34,20.8c-0.1-0.4-0.5-0.8-1-0.8H17z M12,38v3c0,1.7,1.3,3,3,3h20
	c1.7,0,3-1.3,3-3v-3H12z M16,46v1c0,1.7,1.3,3,3,3h12c1.7,0,3-1.3,3-3v-1H16z"/>
</svg>
