<?xml version="1.0" encoding="utf-8"?>
<!-- Generator: Adobe Illustrator 25.0.0, SVG Export Plug-In . SVG Version: 6.00 Build 0)  -->
<svg version="1.1" id="Layer_1" xmlns="http://www.w3.org/2000/svg" xmlns:xlink="http://www.w3.org/1999/xlink" x="0px" y="0px"
	 viewBox="0 0 50 50" style="enable-background:new 0 0 50 50;" xml:space="preserve">
<style type="text/css">
	.st0{fill:#FFFFFF;}
</style>
<path class="st0" d="M24.7,2c-0.6,0-1.2,0-1.8,0.1c0,0,0,0-0.1,0C14.6,2.7,9.7,7.6,9.1,15.9C9,16.4,9,17,9,17.6c0,1.5,0.5,4,1,6
	c0.2,0.7,0.3,1.3,0.5,1.8c-0.3,0.2-0.6,0.4-0.9,0.8c-0.5,0.7-0.8,1.8-0.7,3c0,0,0,0,0,0c0.2,2,0.9,3.4,1.5,4.2
	c0.4,0.6,0.7,0.7,0.9,0.9c0.3,1.8,1.4,3.9,3.1,6c1.8,2.3,4.1,4.4,6.6,5.6c0.9,1.1,2.3,1.9,3.8,1.9c1.6,0,2.9-0.8,3.8-1.9
	c2.5-1.2,4.8-3.4,6.6-5.6c1.7-2.1,2.8-4.2,3.1-6c0.2-0.2,0.5-0.3,0.9-0.9c0.6-0.8,1.3-2.2,1.5-4.2c0.1-1.2-0.2-2.3-0.7-3
	c-0.3-0.4-0.6-0.6-0.9-0.9c0.4-1.3,0.7-2.5,1-3.7c0-0.2,0.1-0.4,0.1-0.7c0.1-0.3,0.1-0.6,0.2-0.9c0-0.1,0-0.2,0-0.2
	c0-0.3,0.1-0.6,0.1-0.9c0-0.1,0-0.3,0-0.4c0-0.3,0.1-0.6,0.1-0.9c0-0.1,0-0.2,0-0.4c0-0.4,0-0.9,0-1.3c0-0.4,0-0.9-0.1-1.3
	c0,0,0-0.1,0-0.1c-0.1-0.5-0.1-1-0.2-1.5c0,0,0,0,0,0c-0.1-0.2-0.1-0.5-0.2-0.7c0-0.1,0-0.1-0.1-0.2c-0.1-0.2-0.1-0.4-0.2-0.6
	c0-0.1-0.1-0.2-0.1-0.3c-0.1-0.1-0.1-0.3-0.2-0.4c-0.1-0.2-0.2-0.4-0.3-0.6c0,0,0-0.1-0.1-0.1c0-0.1-0.1-0.2-0.1-0.3
	c-0.1-0.1-0.2-0.3-0.3-0.4c0,0,0,0,0,0c-0.1-0.2-0.2-0.4-0.4-0.5c-0.1-0.1-0.1-0.2-0.2-0.2c-0.1-0.1-0.1-0.2-0.2-0.2
	C37.2,7,35.6,6.2,33.6,6c-0.8-1.2-2.9-3.4-7.1-3.9c-0.1,0-0.2,0-0.2,0c-0.2,0-0.4,0-0.6,0C25.3,2,25,2,24.7,2z M32.5,14.4
	c1,1.5,2.5,4.5,2.5,7.6c0,1.4,0.5,3.7,2,4.4c-1.8,1.5-3.8,2.8-5.8,3.8c-2.4,1.2-4.7,1.8-5.9,1.8c-1.4,0-3.7-0.6-6.3-1.7
	c-2-0.9-4.1-2.1-6-3.6c1.2-0.9,1.7-3.3,2-4.7c0.6-3.1,4.1-4,9-4C28.7,18,31.3,15.8,32.5,14.4z M19.5,26c-0.8,0-1.5,0.7-1.5,1.5
	s0.7,1.5,1.5,1.5l0,0c0.8,0,1.5-0.7,1.5-1.5l0,0C21,26.7,20.3,26,19.5,26z M30.5,26c-0.8,0-1.5,0.7-1.5,1.5s0.7,1.5,1.5,1.5l0,0
	c0.8,0,1.5-0.7,1.5-1.5l0,0C32,26.7,31.3,26,30.5,26z M38.7,27.6c0.2,0.4,0.3,0.9,0.3,1.5c-0.2,1.7-0.7,2.7-1.1,3.3
	C37.4,33,37.2,33,37.2,33c-0.3,0.2-0.5,0.4-0.5,0.8c-0.1,1-1.2,3.3-2.8,5.4c-0.1,0.2-0.3,0.4-0.5,0.5c-0.5-2.6-0.8-5.7,0.3-8.5
	C35.4,30.2,37.1,29,38.7,27.6z M11.2,27.8c1.5,1.2,3.1,2.3,4.7,3.2c1.2,2.8,0.9,5.9,0.4,8.5c-0.1-0.1-0.1-0.1-0.2-0.2
	c-1.7-2.1-2.7-4.4-2.8-5.4c0-0.3-0.2-0.6-0.5-0.8c0,0-0.2-0.1-0.6-0.7c-0.4-0.6-0.9-1.6-1.1-3.3h0C10.9,28.5,11,28.1,11.2,27.8z"/>
</svg>
