<?xml version="1.0" encoding="utf-8"?>
<!-- Generator: Adobe Illustrator 25.0.0, SVG Export Plug-In . SVG Version: 6.00 Build 0)  -->
<svg version="1.1" id="Layer_1" xmlns="http://www.w3.org/2000/svg" xmlns:xlink="http://www.w3.org/1999/xlink" x="0px" y="0px"
	 viewBox="0 0 50 50" style="enable-background:new 0 0 50 50;" xml:space="preserve">
<style type="text/css">
	.st0{fill:#FFFFFF;}
</style>
<path class="st0" d="M21.5,12c-0.5,0-0.9,0.3-1,0.8l-2.8,13.6l-1.8-4.8c-0.1-0.4-0.5-0.6-0.9-0.6c-0.4,0-0.8,0.2-0.9,0.5L12.4,25H9
	c-0.1,0-0.2,0-0.3,0c-0.4-0.6-1-1-1.7-1c-1.1,0-2,0.9-2,2s0.9,2,2,2c0.7,0,1.4-0.4,1.8-1c0.1,0,0.2,0,0.2,0h4c0.4,0,0.7-0.2,0.9-0.6
	l1-1.9l2.2,5.9c0.2,0.4,0.6,0.7,1,0.6c0.4,0,0.8-0.4,0.9-0.8l2.5-11.9l3.1,16.9c0.1,0.4,0.4,0.8,0.9,0.8c0.4,0,0.9-0.2,1-0.6
	l4.1-10.5l2.1,5.5c0.1,0.4,0.5,0.6,0.8,0.6c0.4,0,0.7-0.1,0.9-0.5l2.2-3.5h4.7c0.4,0.6,1,1,1.7,1c1.1,0,2-0.9,2-2s-0.9-2-2-2
	c-0.7,0-1.4,0.4-1.7,1H36c-0.3,0-0.7,0.2-0.8,0.5l-1.4,2.3l-2.3-6.1c-0.1-0.4-0.5-0.6-0.9-0.6c-0.4,0-0.8,0.3-0.9,0.6l-3.7,9.7
	l-3.4-18.5C22.4,12.3,22,12,21.5,12z"/>
</svg>
