<?xml version="1.0" encoding="utf-8"?>
<!-- Generator: Adobe Illustrator 25.0.0, SVG Export Plug-In . SVG Version: 6.00 Build 0)  -->
<svg version="1.1" id="Layer_1" xmlns="http://www.w3.org/2000/svg" xmlns:xlink="http://www.w3.org/1999/xlink" x="0px" y="0px"
	 viewBox="0 0 50 50" style="enable-background:new 0 0 50 50;" xml:space="preserve">
<style type="text/css">
	.st0{fill:#FFFFFF;}
</style>
<path class="st0" d="M25,0c-5,0-9,4-9,9s4,9,9,9s9-4,9-9S30,0,25,0z M17.5,20c-2,0-3.5,0.9-4.9,2.3c-0.2,0.1-0.3,0.2-0.4,0.4
	c-0.3,0.3-0.6,0.6-0.8,1c0,0-0.1,0.1-0.1,0.2c-0.3,0.3-0.5,0.7-0.8,1.1c0,0.1-0.1,0.1-0.2,0.2c-0.3,0.4-0.5,0.8-0.8,1.2
	c-0.1,0.1-0.1,0.1-0.2,0.2c-0.3,0.4-0.5,0.8-0.8,1.3c-0.7,1.1-1.5,2.3-2.3,3.5c-5.7,8.4-4.6,13.3-3.5,15.4c1,2,2.9,3.1,5,3.1h32.4
	c1.1,0,2.1-0.5,2.8-1.3c2.4-3.1,1.1-11-0.3-17.1C40.7,23.9,37.3,20,32.5,20H17.5z M17.5,22H23l2.7,11.1l0.7,2.9H31c3.9,0,7,3.1,7,7
	c0,2-0.8,3.7-2.1,5H31c2.8,0,5-2.2,5-5s-2.2-5-5-5h-4.2l0.2,0.7l0.1,0.2l2.2,9.1H12c-4.3-3.2-0.2-18.1,1.9-24.1
	C15,22.7,16.2,22,17.5,22z"/>
</svg>
