<?xml version="1.0" encoding="utf-8"?>
<!-- Generator: Adobe Illustrator 25.0.0, SVG Export Plug-In . SVG Version: 6.00 Build 0)  -->
<svg version="1.1" id="Layer_1" xmlns="http://www.w3.org/2000/svg" xmlns:xlink="http://www.w3.org/1999/xlink" x="0px" y="0px"
	 viewBox="0 0 50 50" style="enable-background:new 0 0 50 50;" xml:space="preserve">
<style type="text/css">
	.st0{fill:#FFFFFF;}
</style>
<path class="st0" d="M8,2C5.8,2,4,3.8,4,6v38c0,2.2,1.8,4,4,4h34c2.2,0,4-1.8,4-4V6c0-2.2-1.8-4-4-4H8z M25,5.3c0.6,0,1,0.4,1,1v0.5
	c0,0.6-0.4,1-1,1c0.6,0,1,0.4,1,1v0.5c0,0.6-0.4,1-1,1c0.6,0,1,0.4,1,1v0.5c0,0.6-0.4,1-1,1c0.6,0,1,0.4,1,1c0-0.1,0-0.3,0.1-0.4
	c0.2-0.5,0.7-0.8,1.2-0.7c0,0,4,1.2,8.2,0c0.5-0.2,1.1,0.2,1.2,0.7s-0.1,1.1-0.7,1.2c-1.6,0.5-3.2,0.7-4.6,0.7
	c-2.7,0-4.7-0.6-4.8-0.7c-0.4-0.1-0.6-0.5-0.7-0.8v0.5c0,0.6-0.4,1-1,1c0.6,0,1,0.4,1,1v0.5c0,0.6-0.4,1-1,1c0.6,0,1,0.4,1,1v0.5
	c0,0.6-0.4,1-1,1c0.6,0,1,0.4,1,1v0.5c0,0.6-0.4,1-1,1c0.6,0,1,0.4,1,1v0.5c0,0.6-0.4,1-1,1c0.6,0,1,0.4,1,1v0.5c0,0.6-0.4,1-1,1
	c0.6,0,1,0.4,1,1v0.5c0,0.2-0.1,0.4-0.2,0.5c1.3-0.3,3-0.7,3.8-0.9c0.4-0.1,0.7-0.2,1.1-0.4c0.7-0.3,1.4-0.5,2.2-0.5
	c2.7,0,4.6,2.2,4.6,5.4c0,3.5-2.7,4.5-5.7,5c-1.4,0.3-2.1,0.8-2.7,2.3C28.5,42.6,26.6,44,25,44c-1.7,0-3.5-1.4-4.2-3.3
	c-0.6-1.5-1.2-2.1-2.7-2.3c-2.9-0.5-5.7-1.5-5.7-5c0-3.2,1.9-5.4,4.6-5.4c0.8,0,1.5,0.3,2.2,0.5c0.3,0.1,0.7,0.3,1.1,0.4
	c0.8,0.2,2.6,0.7,3.8,0.9c-0.1-0.1-0.2-0.3-0.2-0.5v-0.5c0-0.6,0.4-1,1-1c-0.6,0-1-0.4-1-1v-0.5c0-0.6,0.4-1,1-1c-0.6,0-1-0.4-1-1
	v-0.5c0-0.6,0.4-1,1-1c-0.6,0-1-0.4-1-1v-0.5c0-0.6,0.4-1,1-1c-0.6,0-1-0.4-1-1v-0.5c0-0.6,0.4-1,1-1c-0.6,0-1-0.4-1-1v-0.5
	c0-0.6,0.4-1,1-1c-0.6,0-1-0.4-1-1v-0.5c0,0.4-0.3,0.7-0.7,0.8c-0.1,0-2.1,0.7-4.8,0.7c-1.4,0-3-0.2-4.6-0.7
	c-0.5-0.2-0.8-0.7-0.7-1.2c0.2-0.5,0.7-0.8,1.2-0.7c4.2,1.2,8.1,0,8.2,0c0.5-0.2,1.1,0.1,1.3,0.7c0,0.1,0,0.3,0,0.4c0-0.6,0.4-1,1-1
	c-0.6,0-1-0.4-1-1v-0.5c0-0.6,0.4-1,1-1c-0.6,0-1-0.4-1-1V8.8c0-0.6,0.4-1,1-1c-0.6,0-1-0.4-1-1V6.3C24,5.8,24.4,5.3,25,5.3z
	 M16.1,8.8c0.1,0,0.3,0,0.4,0c4,1.2,5.9,0.1,6,0.1c0.5-0.3,1.1-0.1,1.4,0.4s0.1,1.1-0.4,1.3c-0.1,0-1.3,0.8-3.5,0.8
	c-1.1,0-2.4-0.2-4-0.7c-0.5-0.2-0.8-0.7-0.7-1.2C15.4,9.1,15.7,8.8,16.1,8.8z M27.1,8.8c0.1,0,0.3,0.1,0.4,0.1c0.1,0,2,1.1,6-0.1
	C34,8.7,34.6,9,34.7,9.5s-0.1,1.1-0.7,1.2c-1.6,0.5-2.9,0.7-4,0.7c-2.3,0-3.5-0.7-3.5-0.8c-0.5-0.3-0.6-0.9-0.3-1.4
	C26.4,8.9,26.7,8.7,27.1,8.8z M11.2,16.8c0.1,0,0.3,0,0.4,0.1c5.6,2.3,10.9,0.1,11,0c0.5-0.2,1.1,0,1.3,0.5s0,1.1-0.5,1.3
	c-0.2,0.1-2.8,1.2-6.4,1.2c-1.9,0-4-0.3-6.2-1.2c-0.5-0.2-0.7-0.8-0.5-1.3C10.5,17,10.8,16.8,11.2,16.8z M27.1,16.8
	c0.1,0,0.3,0.1,0.4,0.1c0.1,0,3.9,2,11-0.1c0.5-0.2,1.1,0.2,1.2,0.7s-0.1,1.1-0.7,1.2c-2.7,0.8-4.9,1-6.8,1c-3.7,0-5.7-1.1-5.8-1.1
	c-0.5-0.3-0.7-0.9-0.4-1.4C26.3,16.9,26.7,16.7,27.1,16.8z M15.2,21.8c0.1,0,0.3,0,0.4,0.1c4.6,1.9,6.6,0.3,6.7,0.2
	c0.4-0.4,1-0.3,1.4,0.1s0.3,1-0.1,1.4c-0.1,0.1-1.4,1.2-4.1,1.2c-1.3,0-2.9-0.3-4.8-1.1c-0.5-0.2-0.7-0.8-0.5-1.3
	C14.5,22,14.8,21.8,15.2,21.8z M27,21.8c0.3,0,0.5,0.1,0.7,0.2c0.1,0.1,2.1,1.7,6.7-0.2c0.5-0.2,1.1,0.1,1.3,0.6s0,1.1-0.5,1.3
	c-1.9,0.8-3.5,1.1-4.8,1.1c-2.7,0-4-1.2-4.1-1.2c-0.4-0.4-0.4-1,0-1.4C26.5,21.9,26.7,21.8,27,21.8z M18.2,31.5
	c-0.6,0-1.2,0.3-1.5,0.8c-0.5,0.8-0.2,2,0.7,2.6c0.9,0.6,2,0.4,2.5-0.4s0.2-2-0.7-2.7C18.9,31.6,18.5,31.5,18.2,31.5z M31.8,31.5
	c-0.4,0-0.7,0.1-1.1,0.3c-0.9,0.6-1.2,1.8-0.7,2.7c0.5,0.8,1.6,1,2.5,0.4c0.9-0.6,1.2-1.8,0.7-2.6C33,31.8,32.4,31.5,31.8,31.5z"/>
</svg>
