<?xml version="1.0" encoding="utf-8"?>
<!-- Generator: Adobe Illustrator 25.0.0, SVG Export Plug-In . SVG Version: 6.00 Build 0)  -->
<svg version="1.1" id="Layer_1" xmlns="http://www.w3.org/2000/svg" xmlns:xlink="http://www.w3.org/1999/xlink" x="0px" y="0px"
	 viewBox="0 0 24 24" style="enable-background:new 0 0 24 24;" xml:space="preserve">
<style type="text/css">
	.st0{fill:#FFFFFF;}
</style>
<path class="st0" d="M1.7,0C1,0,0.2,0.4,0,1.7c1.7,1.7,2.9,3.5,3.6,4.9c0.8-0.5,1.6-0.8,2.5-0.8h0.6c-0.5-0.9-1-1.7-1-1.7
	C6.1,3.6,7.3,2.4,8,1.9C7.9,1.2,7.6,0.4,6.5,0C5.8,0.2,4.8,1.2,4,2C3.5,1.2,2.3,0,2.3,0S2-0.1,1.7,0z M15.7,0
	c-1.3,0.1-2.3,1.8-2.3,1.8s0.6,0.3,1,0.9c-0.4,0.6-0.8,1.3-1,1.9c1.1,0,2.1,0.2,3.1,0.4c0.2-0.3,0.3-0.5,0.3-0.5
	C17,4.8,17.2,5,17.4,5.4C19,6,20.3,6.9,21.5,8.2c0.3,0.3,0.5,0.6,0.7,0.9C21,4.1,17.2,0.7,15.7,0z M21.2,0c-1,0.8-1.9,1.7-1.9,1.7
	s1.3,1.1,2,2.7c0,0,1.6-1.4,2.6-2.4C23.6,0.3,22.4-0.1,21.2,0z M13.2,6c-2.5,0-4,1.9-4,1.9s-1.5-0.7-3-0.7C3.8,7.2,2,9.7,2,13.4
	c0,6.6,7.2,8.5,7.2,8.5s-3.8-5-1.6-9.4c0,4.4,2.8,9.2,5.2,10.5c2.9,1.5,7.2,1.3,10.3-0.1c0.1-0.1,0.6-0.4,0.7-1
	C24.5,17.7,23.8,6,13.2,6z"/>
</svg>
