<?xml version="1.0" encoding="utf-8"?>
<!-- Generator: Adobe Illustrator 25.0.0, SVG Export Plug-In . SVG Version: 6.00 Build 0)  -->
<svg version="1.1" id="Layer_1" xmlns="http://www.w3.org/2000/svg" xmlns:xlink="http://www.w3.org/1999/xlink" x="0px" y="0px"
	 viewBox="0 0 50 50" style="enable-background:new 0 0 50 50;" xml:space="preserve">
<style type="text/css">
	.st0{fill:#FFFFFF;}
</style>
<path class="st0" d="M25,0c-2.8,0-5,2.2-5,5s2.2,5,5,5s5-2.2,5-5S27.8,0,25,0z M25,10H0v32h18.9V19.1l-9.6,9
	c-0.7,0.7-1.8,0.7-2.5,0.1c-0.8-0.6-0.9-1.8-0.2-2.6c2.3-2.4,6.9-7.3,7.9-8.5c1.4-1.6,3.8-4,5.4-4h10c1.7,0,4,2.4,5.4,4
	c1,1.1,5.6,6.1,7.9,8.5c0.7,0.8,0.7,2-0.1,2.7c-0.8,0.6-1.8,0.5-2.5-0.1l-9.6-9V42h19V10H25z M31,42h-5v8h3.7c0.7,0,1.3-0.6,1.3-1.3
	V42z M26,42v-8c0-0.6-0.4-1-1-1s-1,0.4-1,1v8H26z M24,42h-5.1v6.7c0,0.7,0.6,1.3,1.3,1.3H24V42z"/>
</svg>
