<?xml version="1.0" encoding="utf-8"?>
<!-- Generator: Adobe Illustrator 25.0.0, SVG Export Plug-In . SVG Version: 6.00 Build 0)  -->
<svg version="1.1" id="Layer_1" xmlns="http://www.w3.org/2000/svg" xmlns:xlink="http://www.w3.org/1999/xlink" x="0px" y="0px"
	 viewBox="0 0 50 50" style="enable-background:new 0 0 50 50;" xml:space="preserve">
<style type="text/css">
	.st0{fill:#FFFFFF;}
</style>
<path class="st0" d="M7.9,4C7.9,4,7.9,4,7.9,4C7.8,4,7.8,4,7.8,4c0,0-0.1,0-0.1,0C7.2,4.2,6.9,4.7,7,5.2c0,0.1,0.1,0.2,0.1,0.3
	c2.6,4.3,4.4,9.4,5.5,14.4H8c-0.5,0-0.9,0.3-1,0.8L4.2,34h41.6L43,20.8c-0.1-0.5-0.5-0.8-1-0.8h-4.7c1.1-5.1,2.9-10.2,5.5-14.5
	c0.3-0.5,0.2-1.1-0.3-1.4C42.4,4.1,42.3,4,42.1,4c0,0-0.1,0-0.1,0c0,0-0.1,0-0.1,0c-0.3,0-0.5,0.1-0.7,0.3C39.9,5.5,37.7,6,36.3,6
	c-1.4,0-3.2-0.4-4.6-1.7c-0.4-0.4-1-0.4-1.4,0C29,5.5,26.4,6,25,6c-1.4,0-3.9-0.5-5.3-1.7C19.5,4.1,19.2,4,19,4
	c-0.3,0-0.5,0.1-0.7,0.3C16.8,5.6,15,6,13.7,6c-1.4,0-3.5-0.5-5-1.7C8.6,4.1,8.4,4,8.1,4c0,0-0.1,0-0.1,0C8,4,8,4,7.9,4
	C8,4,8,4,7.9,4C8,4,8,4,7.9,4z M18.3,6.5C20,12.4,21,21.1,21,21.1c0,0.6,0.5,1,1.1,0.9c0.6,0,1-0.5,0.9-1.1c0,0,0-0.1,0-0.1
	c0,0-0.8-7.9-2.5-14C22.1,7.6,23.8,8,25,8c1.2,0,3-0.4,4.6-1.2c-0.4,1.6-1.1,4.4-1.6,8c-0.1,0.5,0.3,1.1,0.9,1.1
	c0.5,0.1,1-0.3,1.1-0.9c0.5-3.8,1.4-7.4,1.7-8.6C33.3,7.5,35,8,36.3,8c0.9,0,2-0.1,3.1-0.5C35.9,14.6,34.2,23,34,30c0,0,0,0,0,0H16
	c0,0,0,0,0,0c-0.2-7-2-15.4-5.5-22.4C11.7,7.9,12.8,8,13.7,8C15.1,8,16.7,7.5,18.3,6.5z M13,26h0.7c0.2,1.4,0.3,2.7,0.3,4h-1
	c-1.1,0-2-0.9-2-2S11.9,26,13,26z M36.3,26H37c1.1,0,2,0.9,2,2s-0.9,2-2,2h-1C36,28.7,36.2,27.4,36.3,26z M4,36v9c0,0.6,0.4,1,1,1
	h40c0.6,0,1-0.4,1-1v-9H4z"/>
</svg>
