<?xml version="1.0" encoding="utf-8"?>
<!-- Generator: Adobe Illustrator 25.0.0, SVG Export Plug-In . SVG Version: 6.00 Build 0)  -->
<svg version="1.1" id="Layer_1" xmlns="http://www.w3.org/2000/svg" xmlns:xlink="http://www.w3.org/1999/xlink" x="0px" y="0px"
	 viewBox="0 0 50 50" style="enable-background:new 0 0 50 50;" xml:space="preserve">
<style type="text/css">
	.st0{fill:#FFFFFF;}
</style>
<path class="st0" d="M8,0C5.2,0,3,2.2,3,5v14.5c3.8,1,11.6,2.5,22,2.5c10.5,0,18.2-1.5,22-2.5V5c0-2.8-2.2-5-5-5H8z M17,5h14.2L33,8
	H18.8L17,5z M17,10h14.2l1.8,3H18.8L17,10z M17,15h14.2l1.8,3H18.8L17,15z M3,21.6v19C3.6,40.8,4.3,41,5,41h40c0.7,0,1.4-0.2,2-0.4
	v-19c-4.1,1-11.7,2.4-22,2.4S7.1,22.6,3,21.6z M2,23.2c-1.2,0.4-2,1.5-2,2.8s0.8,2.4,2,2.8V23.2z M48,23.2v5.6c1.2-0.4,2-1.5,2-2.8
	S49.2,23.6,48,23.2z M25,26.4c0,0,2.9,4.3,2.9,5.9c0,1.6-1.3,2.9-2.9,2.9s-2.9-1.3-2.9-2.9S25,26.4,25,26.4z M0,30v6
	c0,1.6,0.8,3.1,2,4v-9.1C1.3,30.7,0.6,30.4,0,30z M50,30c-0.6,0.4-1.3,0.8-2,0.9V40c1.2-0.9,2-2.3,2-4V30z M3,42.7V45
	c0,2.8,2.2,5,5,5h34c2.8,0,5-2.2,5-5v-2.3c-0.6,0.2-1.3,0.3-2,0.3H5C4.3,43,3.6,42.9,3,42.7z"/>
</svg>
