<?xml version="1.0" encoding="utf-8"?>
<!-- Generator: Adobe Illustrator 25.0.0, SVG Export Plug-In . SVG Version: 6.00 Build 0)  -->
<svg version="1.1" id="Layer_1" xmlns="http://www.w3.org/2000/svg" xmlns:xlink="http://www.w3.org/1999/xlink" x="0px" y="0px"
	 viewBox="0 0 50 50" style="enable-background:new 0 0 50 50;" xml:space="preserve">
<style type="text/css">
	.st0{fill:#FFFFFF;}
</style>
<path class="st0" d="M19.5,2C15.9,2,13,4.9,13,8.5c0,3.8,3.2,6.8,7,6.5v9l5-2l5,2v-9c3.8,0.3,7-2.7,7-6.5C37,4.9,34.1,2,30.5,2
	c-2.3,0-4.3,1.2-5.5,3C23.8,3.2,21.8,2,19.5,2z M25,24l-5,2v9c-3.8-0.3-7,2.7-7,6.5c0,3.6,2.9,6.5,6.5,6.5c2.3,0,4.3-1.2,5.5-3
	c1.2,1.8,3.2,3,5.5,3c3.6,0,6.5-2.9,6.5-6.5c0-3.8-3.2-6.8-7-6.5v-9L25,24z"/>
</svg>
