<?xml version="1.0" encoding="utf-8"?>
<!-- Generator: Adobe Illustrator 25.0.0, SVG Export Plug-In . SVG Version: 6.00 Build 0)  -->
<svg version="1.1" id="Layer_1" xmlns="http://www.w3.org/2000/svg" xmlns:xlink="http://www.w3.org/1999/xlink" x="0px" y="0px"
	 viewBox="0 0 50 50" style="enable-background:new 0 0 50 50;" xml:space="preserve">
<style type="text/css">
	.st0{fill:#FFFFFF;}
</style>
<path class="st0" d="M19,5c-1.7,0-3,1.3-3,3v3H3c-1.7,0-3,1.3-3,3v5h6c0-1.1,0.9-2,2-2h4c1.1,0,2,0.9,2,2h22c0-1.1,0.9-2,2-2h4
	c1.1,0,2,0.9,2,2h6v-5c0-1.7-1.3-3-3-3H34V8c0-1.7-1.3-3-3-3H19z M19,7h12c0.6,0,1,0.4,1,1v3H18V8C18,7.4,18.4,7,19,7z M8,19v2h4v-2
	H8z M38,19v2h4v-2H38z M0,21v21c0,1.7,1.3,3,3,3h44c1.7,0,3-1.3,3-3V21h-6c0,1.1-0.9,2-2,2h-4c-1.1,0-2-0.9-2-2H14c0,1.1-0.9,2-2,2
	H8c-1.1,0-2-0.9-2-2H0z M23,25h4v4h4v4h-4v4h-4v-4h-4v-4h4V25z"/>
</svg>
