<?xml version="1.0" encoding="utf-8"?>
<!-- Generator: Adobe Illustrator 25.0.0, SVG Export Plug-In . SVG Version: 6.00 Build 0)  -->
<svg version="1.1" id="Layer_1" xmlns="http://www.w3.org/2000/svg" xmlns:xlink="http://www.w3.org/1999/xlink" x="0px" y="0px"
	 viewBox="0 0 50 50" style="enable-background:new 0 0 50 50;" xml:space="preserve">
<style type="text/css">
	.st0{fill:#FFFFFF;}
</style>
<path class="st0" d="M24.7,2c-1.5,0-2.7,1.1-3,2.5L20.2,14h9.7l-1.6-9.5C28,3.1,26.8,2,25.3,2H24.7z M20,16c-1.1,0-2,0.9-2,2v1.2
	c0,0.4-0.2,0.7-0.5,0.8c-5.1,3-8,8.5-7.5,14.4c0.7,7.4,6.8,13.3,14.2,13.6c0.2,0,0.5,0,0.7,0c3.9,0,7.5-1.5,10.3-4.1
	C38.4,41,40,37.1,40,33c0-5.3-2.9-10.3-7.5-13c-0.3-0.2-0.5-0.5-0.5-0.8V18c0-1.1-0.9-2-2-2H20z"/>
</svg>
