<?xml version="1.0" encoding="utf-8"?>
<!-- Generator: Adobe Illustrator 25.0.0, SVG Export Plug-In . SVG Version: 6.00 Build 0)  -->
<svg version="1.1" id="Layer_1" xmlns="http://www.w3.org/2000/svg" xmlns:xlink="http://www.w3.org/1999/xlink" x="0px" y="0px"
	 viewBox="0 0 50 50" style="enable-background:new 0 0 50 50;" xml:space="preserve">
<style type="text/css">
	.st0{fill:#FFFFFF;}
</style>
<path class="st0" d="M25,0C14.6,0,4,2.2,4,6.5v20.4c0,2.6,1.1,5,3,6.8l8,7v-2.2c0-4.2,4.4-7.5,10-7.5s10,3.3,10,7.5v2.2l8-7
	c1.9-1.7,3-4.2,3-6.8V6.5C46,2.2,35.4,0,25,0z M25,9c8.3,0,15,2.7,15,4.8v7.4c0,2.1-1.7,3.8-3.8,3.8h-2.5c-0.8,0-1.6-0.2-2.3-0.6
	l-4.1-3.2c-1.4-1-3.2-1-4.6,0l-4.1,3.2c-0.7,0.4-1.5,0.6-2.3,0.6h-2.5c-2.1,0-3.8-1.7-3.8-3.8v-7.5C10,11.7,16.7,9,25,9z M25,35
	c-5.6,0-10,3.3-10,7.5S19.4,50,25,50s10-3.3,10-7.5S30.6,35,25,35z M25,39c3.4,0,6,1.8,6,3.5S28.4,46,25,46s-6-1.8-6-3.5
	S21.6,39,25,39z"/>
</svg>
