<?xml version="1.0" encoding="utf-8"?>
<!-- Generator: Adobe Illustrator 25.0.0, SVG Export Plug-In . SVG Version: 6.00 Build 0)  -->
<svg version="1.1" id="Layer_1" xmlns="http://www.w3.org/2000/svg" xmlns:xlink="http://www.w3.org/1999/xlink" x="0px" y="0px"
	 viewBox="0 0 50 50" style="enable-background:new 0 0 50 50;" xml:space="preserve">
<style type="text/css">
	.st0{fill:#FFFFFF;}
</style>
<path class="st0" d="M11,4C9.3,4,8,5.3,8,7v5H7c0,0-0.1,0-0.1,0c-0.6,0-1,0.5-1,1s0.5,1,1,1h4c0.4,0,0.7-0.2,0.9-0.5
	C12,13.7,12,13.8,12,14c0,0.6-0.4,1-1,1H8v3H7c0,0-0.1,0-0.1,0c-0.6,0-1,0.5-1,1s0.5,1,1,1h4c0.4,0,0.7-0.2,0.9-0.5
	C12,19.7,12,19.8,12,20c0,0.6-0.4,1-1,1H8v3H7c0,0-0.1,0-0.1,0c-0.6,0-1,0.5-1,1s0.5,1,1,1h4c0.4,0,0.7-0.2,0.9-0.5
	C12,25.7,12,25.8,12,26c0,0.6-0.4,1-1,1H8v3H7c0,0-0.1,0-0.1,0c-0.6,0-1,0.5-1,1s0.5,1,1,1h4c0.4,0,0.7-0.2,0.9-0.5
	C12,31.7,12,31.8,12,32c0,0.6-0.4,1-1,1H8v3H7c0,0-0.1,0-0.1,0c-0.6,0-1,0.5-1,1s0.5,1,1,1h4c0.4,0,0.7-0.2,0.9-0.5
	C12,37.7,12,37.8,12,38c0,0.6-0.4,1-1,1H8v4c0,1.7,1.3,3,3,3h28c1.7,0,3-1.3,3-3V7c0-1.7-1.3-3-3-3H11z M23,17h4v6h6v4h-6v6h-4v-6
	h-6v-4h6V17z"/>
</svg>
