<?xml version="1.0" encoding="utf-8"?>
<!-- Generator: Adobe Illustrator 25.0.0, SVG Export Plug-In . SVG Version: 6.00 Build 0)  -->
<svg version="1.1" id="Layer_1" xmlns="http://www.w3.org/2000/svg" xmlns:xlink="http://www.w3.org/1999/xlink" x="0px" y="0px"
	 viewBox="0 0 50 50" style="enable-background:new 0 0 50 50;" xml:space="preserve">
<style type="text/css">
	.st0{fill:#FFFFFF;}
</style>
<path class="st0" d="M49,4H1C0.4,4,0,4.4,0,5v19h8.6l3.7-3.7c0.2-0.2,0.6-0.3,0.9-0.3c0.3,0.1,0.6,0.3,0.7,0.6l1.9,5L20,8.8
	C20.1,8.3,20.6,8,21.1,8C21.6,8,22,8.4,22,8.9l1.7,24.9l4.4-13.2c0.1-0.4,0.5-0.7,0.9-0.7c0.4,0,0.8,0.2,1,0.6l3.1,6.2l1.1-2.2
	c0.2-0.3,0.5-0.6,0.9-0.6h5.3c0.3-0.6,1-1,1.7-1c1.1,0,2,0.9,2,2s-0.9,2-2,2c-0.7,0-1.4-0.4-1.7-1h-4.7l-1.7,3.4
	c-0.3,0.7-1.4,0.7-1.8,0l-2.9-5.8l-5.2,15.7C23.8,39.7,23.4,40,23,40c0,0-0.1,0-0.1,0c-0.5-0.1-0.8-0.4-0.9-0.9l-1.6-23.6L17,29.2
	c-0.1,0.4-0.5,0.7-0.9,0.8c-0.4,0-0.8-0.2-1-0.6l-2.5-6.5l-2.9,2.9C9.5,25.9,9.3,26,9,26H0v19c0,0.6,0.4,1,1,1h48c0.6,0,1-0.4,1-1V5
	C50,4.4,49.6,4,49,4z"/>
</svg>
