<?xml version="1.0" encoding="utf-8"?>
<!-- Generator: Adobe Illustrator 25.0.0, SVG Export Plug-In . SVG Version: 6.00 Build 0)  -->
<svg version="1.1" id="Layer_1" xmlns="http://www.w3.org/2000/svg" xmlns:xlink="http://www.w3.org/1999/xlink" x="0px" y="0px"
	 viewBox="0 0 50 50" style="enable-background:new 0 0 50 50;" xml:space="preserve">
<style type="text/css">
	.st0{fill:#FFFFFF;}
</style>
<path class="st0" d="M35.9,4C31.6,4,27.8,5.9,25,9.4C22.1,5.9,18.4,4,14.1,4C6.3,4,0,10.4,0,18.2c0,2.1,0.3,4,0.8,5.8l0.7,2
	c3.3,8.1,11.3,13.5,17.6,17.7c2,1.4,5.2,4,5.2,4c0.2,0.1,0.4,0.2,0.6,0.2c0.3,0,0.5-0.1,0.7-0.3c1.3-1.1,3.2-2.6,5.2-4
	C38.9,38.3,50,30.9,50,18.2C50,10.4,43.7,4,35.9,4z"/>
</svg>
