<?xml version="1.0" encoding="utf-8"?>
<!-- Generator: Adobe Illustrator 25.0.0, SVG Export Plug-In . SVG Version: 6.00 Build 0)  -->
<svg version="1.1" id="Layer_1" xmlns="http://www.w3.org/2000/svg" xmlns:xlink="http://www.w3.org/1999/xlink" x="0px" y="0px"
	 viewBox="0 0 50 50" style="enable-background:new 0 0 50 50;" xml:space="preserve">
<style type="text/css">
	.st0{fill:#FFFFFF;}
</style>
<path class="st0" d="M40,3v4h-4v4h4v4h4v-4h4V7h-4V3H40z M5.9,13c-0.8,0-1.5,0.3-2.1,0.9L0.6,17l12.5,13.2l4.1-6.8l-9.1-9.5
	C7.5,13.3,6.7,13,5.9,13z M25,18c-1.6,0-3,1.4-3,3v3h-2.9l-4.2,7H22v5h-4c-1.9,0-3.5,1.3-3.9,3.1c-1.8,0.4-3.1,2-3.1,3.9
	c0,2.2,1.8,4,4,4s4-1.8,4-4c0-1.8-1.2-3.3-2.8-3.8c0.3-0.7,1-1.2,1.8-1.2h24c0.8,0,1.5,0.5,1.8,1.2c-1.6,0.5-2.8,2-2.8,3.8
	c0,2.2,1.8,4,4,4s4-1.8,4-4c0-1.9-1.3-3.5-3.1-3.9c-0.4-1.8-2-3.1-3.9-3.1h-4v-5h11v-4c0-1.7-1.3-3-3-3h-8v-3c0-1.6-1.4-3-3-3H25z
	 M25,20h10c0.6,0,1,0.4,1,1v3H24v-3C24,20.4,24.4,20,25,20z M24,31h12v5H24V31z"/>
</svg>
